<?xml version="1.0" encoding="UTF-8"?><svg id="Layer_2" xmlns="http://www.w3.org/2000/svg" viewBox="0 0 80.88 69.91"><defs><style>.cls-1{fill:#010101;}</style></defs><g id="Layer_1-2"><g><path class="cls-1" d="M76.41,17.22c.04-.14-.09-.07-.13-.1-.27-.14-.55-.27-.83-.36-.3-.09-.22-.23-.18-.43,.17-.84,.3-1.69,.59-2.5,.04-.11,.09-.21,.14-.3,.07-.13,.14-.22,.28-.04,.09,.12,.29,.07,.43,.1,.76,.19,1.51,.41,2.19,.85,.23,.15,.27,.33,.21,.53-.22,.71-.33,1.47-.76,2.11-.03,.05-.02,.1-.02,.15,0,.17-.11,.23-.27,.23-.34,0-.68-.05-1.01-.13-.15-.04-.18-.01-.21,.12-.01,.06-.05,.13-.1,.18-.09,.1-.05,.16,.03,.24,.23,.24,.38,.5,.18,.84-.03,.06,0,.09,.04,.1,.6,.16,.87,.66,1.17,1.13,.01,.02,.04,.03,.08,.06,.12-.3,.15-.61,.21-.92,.28-1.38,.6-2.75,.98-4.11,.3-1.07,.57-2.15,.77-3.25,.04-.23,.12-.46,.18-.68,.04-.14,.14-.21,.27-.2,.12,0,.15,.12,.18,.23,.12,.43,.03,.86-.03,1.28-.28,2.06-.86,4.06-1.28,6.1-.23,1.08-.43,2.16-.64,3.25-.02,.09-.06,.22,.09,.25,.3,.06,.26,.28,.2,.47-.07,.2-.09,.43-.24,.59-.06,.06-.01,.09,.02,.12,.64,.66,.83,1.46,.79,2.35-.07,1.61-.25,3.21-.5,4.8-.23,1.46-.62,2.88-1.1,4.28-.28,.82-.51,1.65-.79,2.47-.21,.59-.56,1.05-1.06,1.42-.08,.06-.16,.1-.27,.08-.29-.05-.45,.02-.57,.29-.09,.22-.28,.26-.46,.28-.3,.03-.52,.18-.59,.46-.45,1.97-.91,3.93-1.33,5.9-.32,1.52-.62,3.05-.89,4.58-.18,1.01-.3,2.04-.44,3.05-.11,.78-.3,1.55-.49,2.32-.08,.31,.1,.61,.08,.93-.02,.23,.01,.47-.07,.7-.03,.08-.06,.19-.12,.23-.29,.18-.46,.53-.83,.58-.18,.02-.13,.16-.14,.26-.02,.48-.03,.96-.21,1.42-.04,.11-.11,.2-.17,.29-.14,.22-.09,.32,.17,.37,.24,.05,.47,.1,.7,.17,.09,.02,.19,.07,.18,.19,0,.1-.1,.14-.19,.16-.25,.06-.49,.12-.75,.12-.61-.01-1.23,0-1.85,0-.63-.01-1.26-.08-1.88-.16-.05,0-.1-.03-.15-.05-.11-.04-.22-.11-.23-.23,0-.1,.11-.14,.2-.19,.31-.16,.64-.21,.98-.27,.13-.02,.14-.07,.11-.17-.13-.42-.16-.86-.15-1.3,0-.16-.06-.2-.2-.18-1.33,.17-2.65,.36-3.98,.51-.94,.11-1.88,.19-2.82,.27-1.45,.13-2.89,.24-4.34,.36-.84,.07-1.68,.12-2.52,.17-.79,.05-1.59,.1-2.38,.15-.1,0-.15,.04-.18,.15-.22,.92-.31,1.86-.48,2.8-.04,.24-.1,.48-.18,.71-.05,.15,0,.17,.13,.16,.31-.01,.61,.03,.9,.11,.09,.02,.22,.04,.22,.15,0,.12-.14,.17-.24,.16-.26-.02-.5,.06-.76,.06-.37,0-.72,.09-1.07,.21-.41,.14-.85,.2-1.29,.12-.73-.12-1.46-.25-2.18-.39-.16-.03-.32-.08-.46-.17-.16-.1-.16-.21,.03-.28,.35-.13,.71-.17,1.08-.1,.15,.03,.34,.08,.43,0,.09-.09-.05-.25-.1-.37-.24-.65-.34-1.33-.46-2-.08-.41-.19-.83-.14-1.24,.03-.26-.06-.31-.26-.33-.4-.03-.69-.28-1-.49-.08-.05-.14-.09-.24-.08-1.04,.1-2.07,.06-3.11-.1-.92-.14-1.84-.28-2.77-.33-.79-.05-1.59-.12-2.37-.21-1.61-.18-3.23-.26-4.85-.27-.75,0-1.49-.06-2.23-.1-.23-.01-.46-.07-.69-.1-.05,0-.12,0-.12-.07,0-.06,.05-.1,.1-.1,.18-.03,.36-.07,.54-.07,.93-.02,1.86-.06,2.79-.04,1.44,.03,2.88,.11,4.31,.28,1.3,.16,2.6,.25,3.9,.39,.82,.08,1.63,.25,2.46,.28,.5,.02,1,.07,1.5,.02,.12-.01,.24-.03,.37,.07-.47-.99-.44-2.01-.44-3.02,0-1.02-.06-2.04,.01-3.05,.14-1.89,.16-3.77,.14-5.66-.01-.91-.1-1.82-.2-2.72-.09-.77-.16-1.55-.22-2.32-.04-.49-.02-.47-.51-.5-.45-.03-.84,.2-1.27,.24-.61,.05-1.21,.16-1.81,.24-.74,.09-1.49,.17-2.24,.25-.46,.05-.93,.08-1.39,.12-.62,.06-1.25,.14-1.87,.2-.64,.06-1.29,.12-1.94,.17-.87,.07-1.74,.14-2.62,.19-.39,.02-.79,.02-1.19,.01-.17,0-.31-.1-.32-.25,0-.13,.16-.19,.29-.22,.64-.12,1.3-.16,1.95-.21,.2-.02,.39-.09,.61-.07-1.21-.33-2.1-1.16-3.07-1.89-.16,1.1-.3,2.17-.46,3.24-.17,1.11-.22,2.23-.22,3.35,0,2.25,0,4.51,.02,6.76,0,.71,.15,1.41,.18,2.12,.04,.92,.11,1.85-.07,2.77-.02,.1-.01,.21-.01,.32,0,.37-.25,.68-.62,.71-.16,.01-.13,.09-.12,.17,.11,1.08,.23,2.15,.33,3.23,.03,.29,0,.6,.12,.88,.06-.07,.16-.17,.26-.09,.13,.11,.25,.25,.24,.44-.03,.44-.08,.87-.13,1.3-.08,.65-.16,1.29-.24,1.95,.12-.01,.14-.12,.25-.16,.02,.04,.07,.1,.06,.14-.08,.24,.09,.3,.26,.38,.22,.1,.43,.22,.65,.33,.08,.04,.15,.1,.15,.19,0,.11-.09,.13-.18,.15-.14,.04-.27,.05-.42,.05-.17,0-.32,.01-.47,.13-.18,.15-.46,.11-.68,.12-.95,.02-1.89,.14-2.84,.15-1.22,.01-2.39,.31-3.57,.52-.79,.14-1.55,.41-2.34,.57-.76,.15-1.52,.26-2.26-.06-.54-.24-.96-.6-1.15-1.18-.02-.07-.06-.11-.12-.12-.32-.02-.34-.26-.36-.49-.02-.3,.07-.57,.27-.8,.4-.46,.91-.77,1.48-.95,1.33-.44,2.35-1.3,3.31-2.28,.45-.47,.89-.94,1.4-1.36,.22-.18,.42-.31,.73-.24,.17,.04,.31-.17,.5-.17,.27,0,.21-.23,.25-.38,.09-.37,.09-.78,.42-1.14-.53,.14-1,.09-1.46,.11-.61,.03-1.21,0-1.81-.17-.12-.03-.25-.08-.23-.2,.02-.12,.08-.25,.26-.28,.43-.08,.41-.09,.33-.53-.06-.3-.09-.6-.08-.91,0-.41,.02-.83-.04-1.24-.02-.14,.03-.28,.07-.45,.96,.53,1.9,1.07,2.9,1.48-.17-.19-.4-.27-.61-.39-.84-.5-1.66-1.04-2.54-1.48-.15-.07-.22-.21-.32-.33-.35-.46-.41-.95-.25-1.5,.2-.66,.33-1.35,.58-2,.06-.14,.1-.3,.26-.37,.09-.04,.05-.12,.06-.19,.07-1.02,.06-2.04,.05-3.05-.01-.94,.02-1.88,.06-2.82,.06-1.27,.16-2.53,.25-3.8,.04-.66,.08-1.33,.11-2,.04-.95,.13-1.9,.2-2.86,.05-.68,.1-1.36,.18-2.04,.05-.41,.09-.83,.23-1.23,.02-.07-.02-.16-.05-.32-.06,.26-.12,.44-.15,.62-.1,.54-.47,.92-.8,1.32-.48,.59-1.06,1.09-1.64,1.59-.11,.09-.18,.19-.11,.34,.03,.06,.02,.14,.02,.21,0,1.12,.04,2.25-.06,3.37-.2,2.46-.24,4.93-.19,7.39,.02,1.26,.06,2.51,.02,3.77-.02,.69,0,1.39-.03,2.08,0,.24,.06,.47,.2,.66,.05,.07,.11,.14,.15,.21,.07,.12,.15,.27,.06,.38-.11,.12-.24-.01-.34-.08-.34-.22-.5-.52-.5-.95-.02-1.49,.12-2.98,.11-4.47,0-1.61-.01-3.21,.04-4.82,.05-1.67,.12-3.34,.19-5.01,.04-.81,.01-1.62,.02-2.44,0-.06,.03-.13-.04-.17-.07-.04-.11,.04-.15,.08-.93,.87-1.9,1.69-2.78,2.61-.11,.11-.16,.22-.15,.37,.01,.15,0,.3,0,.45,0,.44-.19,.75-.55,1.01-.28,.2-.59,.37-.81,.67-.08,.11-.26,.15-.43,.06-.41-.23-.67-.58-.87-1-.31-.68-.49-1.4-.7-2.14-.38,.29-.81,.47-1.21,.7-.14,.08-.26,.22-.18,.44,.18,.48,.11,.68-.29,.99-.45,.35-.96,.6-1.47,.84-.19,.09-.36,.25-.54,.32-.94,.35-1.7,.04-2.19-.91-.17-.34-.33-.69-.42-1.06-.04-.14-.11-.23-.26-.29-.9-.39-1.57-1.07-2.21-1.79-1.23-1.39-1.85-3.09-2.4-4.83-.28-.9-.41-1.81-.27-2.75,.13-.85,1.01-1.67,1.85-1.72,.3-.02,.48,.19,.64,.4,.19,.25,.31,.54,.44,.83,.45,.96,1.19,1.65,2.01,2.28,.67,.51,1.41,.91,2.09,1.4,.22,.16,.51,.31,.38,.69-.03,.09,.05,.1,.11,.09,.59-.1,1.19-.04,1.79-.04,.46,0,.91-.09,1.36-.12,.14-.01,.25-.05,.18-.26-.08-.26,.1-.57,.36-.73,.38-.24,.78-.42,1.18-.61,.11-.05,.21-.12,.3-.21,.96-1.04,2.09-1.86,3.18-2.74,1.11-.89,2.16-1.84,3.17-2.85,1.2-1.2,2.4-2.4,3.73-3.45,.05-.04,.11-.09,.2-.16-.26-.06-.43-.19-.62-.28-.27-.13-.38-.37-.42-.63-.04-.24,.16-.25,.36-.21-.24-.09-.47-.15-.69-.26-.33-.16-.42-.4-.21-.7,.16-.22,.35-.41,.65-.42,.21,0,.22,.11,.16,.25-.05,.11-.12,.22-.19,.31-.16,.21-.08,.34,.14,.44,.2,.09,.32,.23,.41,.44,.11,.26,.21,.56,.54,.66,.16,.05,.25,.03,.37-.07,.8-.7,1.61-1.37,2.48-1.99,.44-.31,.91-.59,1.41-.79,.31-.12,.65-.1,.98-.09,.84,.04,1.56,.42,2.22,.9,1.36,.97,2.72,1.94,4.05,2.94,.91,.68,1.77,1.42,2.66,2.14,1.08,.88,2.16,1.76,3.24,2.64,.77,.63,1.51,1.28,2.19,2,.09,.1,.19,.18,.35,.2,.23,.02,.39,.19,.54,.34,.07,.07,.11,.1,.18,0,.64-.8,1.55-1.13,2.5-1.38,.01,0,.03-.02,.06-.05-.27-.12-.51-.29-.78-.34-.59-.12-1.12-.37-1.63-.66-.4-.23-.84-.18-1.27-.26-.32-.06-.62-.14-.9-.32-.06-.04-.12-.06-.13-.16,.68,.15,1.38,.08,2.06,.18,.67,.1,1.26,.44,1.87,.69,.52,.22,1.05,.42,1.57,.63,.09,.04,.19,.04,.28,.03,1.25-.24,2.52-.22,3.78-.19,1.17,.03,2.35,.09,3.52,.16,1.23,.07,2.45,.12,3.68,.16,1.53,.05,3.07,.11,4.6,.21,.94,.06,1.87,.19,2.81,.34,.6,.1,1.2,.2,1.8,.31,.05,0,.08,0,.12-.02,.37-.19,.74-.39,1.1-.58,.09-.05,.2-.09,.22-.23,.02-.09,.45-.19,.53-.13,.08,.06,.06,.16,.03,.22-.12,.23-.12,.48-.13,.73,0,.24-.1,.48-.18,.71-.05,.17-.23,.16-.34,.11-.37-.16-.76-.09-1.14-.13-.74-.08-1.48-.2-2.23-.3-.77-.11-1.54-.21-2.31-.3-.84-.09-1.69-.12-2.54-.19-.44-.04-.88-.03-1.31-.05-.58-.03-1.16-.06-1.74-.08-1.6-.05-3.19-.11-4.79-.17-1.08-.04-2.16-.05-3.24-.02-1.22,.03-2.43,.22-3.57,.68-.53,.21-1.05,.44-1.49,.81-.44,.37-.64,.89-.85,1.4-.19,.45-.23,.93-.32,1.4-.03,.14,.1,.24,.1,.37,0,.69,.24,1.33,.33,2.01,.05,.38,.11,.76,.15,1.14,.1,1.14,.17,2.29,.27,3.43,.1,1.12,.2,2.23,.26,3.35,.11,1.85,.05,3.7,.03,5.56,0,.99-.13,1.97-.07,2.96,.06,1.13,.05,2.26,.19,3.38,.05,.34,.11,.68,.24,1.01,.39-.2,.8-.12,1.19-.1,.85,.06,1.7,.1,2.55,.09,.18,0,.17-.13,.18-.23,.02-.18,.03-.36,.06-.55,.02-.1,.07-.11,.14-.12,.1-.01,.08,.07,.09,.13,.03,.13,.06,.25,.08,.38,.06,.38,.06,.39,.44,.37,1.1-.05,2.21-.08,3.31-.17,.9-.07,1.8-.14,2.7-.21,.98-.07,1.96-.14,2.93-.21,1.34-.1,2.68-.24,4.02-.37,.43-.04,.87-.11,1.3-.15,.11-.01,.15-.05,.15-.16,0-.73,.14-1.44,.2-2.16,.06-.7,.08-1.4,.06-2.11-.01-.6,0-1.19,.1-1.78,.06-.31,.17-.44,.53-.44,.94-.02,1.87-.16,2.81-.27,.93-.11,1.86-.24,2.79-.36,.05,0,.11,0,.16,0,.11,.01,.29-.06,.31,.11,.02,.14-.17,.16-.27,.19-.5,.16-1.02,.2-1.54,.27-.61,.08-1.22,.16-1.84,.2-.76,.06-1.52,.16-2.28,.12-.17,0-.23,.02-.25,.22-.06,1.09-.1,2.18-.22,3.27-.07,.69-.25,1.37-.38,2.05-.04,.2-.08,.39-.12,.59-.04,.17-.01,.24,.19,.22,.53-.07,1.06-.11,1.59-.17,.69-.08,1.38-.16,2.08-.25,.74-.1,1.49-.2,2.23-.33,.52-.09,.65-.33,.55-.88-.05-.27-.06-.54-.09-.8-.01-.12,0-.23,.12-.3,.12-.07,.09-.2,.09-.31-.01-1.1,.12-2.19,.23-3.28,.14-1.34,.4-2.65,.67-3.97,.32-1.56,.63-3.13,.97-4.69,.22-1.03,.45-2.06,.7-3.08,.06-.24-.02-.32-.22-.39-.31-.1-.62-.22-.79-.53-.13-.25-.25-.51-.2-.81,.02-.13-.07-.18-.14-.22-.33-.17-.36-.46-.31-.76,.08-.55,.16-1.1,.3-1.64,.02-.08,.09-.24-.04-.27-.13-.03-.3,.05-.31,.21-.08,.89-.42,1.71-.59,2.58-.14,.68-.22,1.37-.47,2.01-.04,.1-.07,.2-.12,.28-.04,.07-.03,.21-.19,.16-.12-.04-.18-.13-.16-.26,.04-.25,.06-.5,.11-.75,.12-.64,.16-1.29,.31-1.92,.19-.77,.47-1.52,.75-2.26,.09-.24,.34-.3,.57-.27,.18,.02,.25-.04,.29-.22,.1-.5,.23-1,.33-1.5,.02-.1,.06-.21-.08-.3-.18-.13-.07-.35-.06-.52,0-.14,.16-.14,.27-.15,.1,0,.12-.04,.14-.14,.12-.5,.25-.99,.38-1.48,.01-.04,.05-.09,0-.11-.23-.1-.21-.27-.23-.49-.02-.23,.08-.24,.22-.2,.19,.05,.24,0,.26-.19,.04-.24,.13-.46,.19-.7,.04-.16,.18-.33-.07-.45-.06-.03-.03-.69,.01-.74,.07-.08,.17-.04,.25-.04,.14,0,.2-.02,.26-.18,.45-1.2,.92-2.4,1.61-3.49,.3-.48,.65-.91,1.19-1.14,.11-.05,.12-.13,.13-.22,.04-.31,.13-.61,.28-.88,.04-.07,.03-.13,.04-.2,.02-.3-.03-.59-.11-.88-.06-.23-.44-.54-.68-.57-.17-.02-.13,.21-.3,.2-.04-.06-.01-.15-.02-.23,0-.05,.04-.11-.05-.12-.04,0-.08,0-.11,.03-.1,.1-.5,.11-.63,0-.14-.12-.23-.27-.12-.46,.1-.17,.06-.36,.06-.54,0-.39,.39-.73,.77-.66,.14,.03,.2,.13,.18,.27-.03,.18,.09,.21,.22,.24,.19,.04,.14-.12,.17-.2,.06-.17,.05-.35-.09-.46-.21-.17-.19-.34-.11-.57,.1-.25,.04-.31-.23-.28h0s0,0,0,0ZM25.75,59.86c.32-.08,.43-.27,.41-.62-.04-.57,0-.58-.57-.73-1.01-.26-2-.58-2.93-1.04-.21-.1-.43-.17-.64-.26,.02,.08,.05,.12,.1,.14,.09,.05,.18,.11,.27,.15,.56,.27,1.15,.5,1.01,1.31-.01,.06,0,.12,0,.18,.06,1.06-.17,2.08-.44,3.1-.03,.12-.03,.17,.08,.23,.67,.4,1.28,.89,1.81,1.46,.13,.14,.27,.17,.47,.14,.32-.05,.64-.03,.97-.03,.09,0,.17,.02,.17,.15,0,.1-.04,.15-.14,.18-.31,.09-.62,.16-.93,.23-.28,.06-.53,.05-.77-.12-.41-.29-.83-.57-1.26-.85-.41-.27-.8-.59-1.28-.75-.32-.1-.5-.05-.7,.21-.13,.17-.27,.32-.41,.48-.43,.47-.86,.95-1.3,1.42,.23,.1,.45,.19,.67,.29,.45,.22,.86,.5,1.23,.85,.04,.04,.1,.1,.07,.16-.03,.05-.08,.03-.14,0-.57-.25-1.17-.46-1.71-.78-.3-.18-.49-.24-.81,.04-.64,.56-1.43,.88-2.22,1.19-.62,.24-1.2,.53-1.6,1.09-.2,.28-.2,.36,0,.63,.55,.7,1.26,.91,2.12,.76,.8-.14,1.57-.38,2.34-.61,1.06-.32,2.13-.66,3.23-.84,.24-.04,.59-.12,.71,.02,.2,.22,.36,.15,.56,.13,.93-.1,1.86-.19,2.79-.31,.16-.02,.18-.08,.16-.23-.04-.37-.1-.75-.09-1.13,.02-.62,.07-1.24,.19-1.85,.03-.14,.05-.31-.15-.32-.23-.02-.31-.17-.36-.35-.14-.56-.19-1.13-.27-1.7-.06-.4-.07-.81-.18-1.2-.18,.05-.29,.27-.5,.16,.1-.17,.26-.25,.4-.35,.19-.13,.06-.29,.05-.43,0-.11-.18-.07-.24-.05-.18,.08-.19,0-.19-.14h0s0,0,0,0Zm46.99-22.99c.07-.13,.17-.15,.3-.15,.54,.02,1.06,.13,1.59,.26,.13,.03,.28,.1,.29-.13,0-.05,.04-.08,.09-.07,.07,.02,.02,.07,.01,.1-.04,.15,.02,.21,.17,.26,.25,.09,.51,.18,.68,.41,.09,.12,.13,.03,.19-.04,.26-.34,.36-.74,.49-1.14,.23-.74,.42-1.5,.66-2.23,.32-.95,.66-1.9,.78-2.91-.03,0-.07-.01-.1-.01-.78,.02-1.35-.41-1.79-.98-.52-.68-.39-1.39-.03-2.11,.38-.76,.98-1.15,2-.98,.2,.03,.38,.14,.59,.21-.03-.21,.04-.38,.05-.57,.05-.59,.12-1.18,.16-1.77,.04-.61,.22-1.24-.42-1.71-.28-.21-.68-.41-1.01-.29-.41,.15-.67,.46-.9,.81-.23,.34-.39,.72-.56,1.1-.35,.79-.65,1.6-.94,2.42-.05,.14-.01,.19,.14,.18,.13-.01,.21,.07,.19,.19-.06,.26-.11,.52-.25,.76-.06,.11-.11,.11-.19,0-.03-.04,.02-.16-.11-.12-.09,.02-.1,.08-.12,.15-.09,.36-.18,.73-.28,1.09-.03,.1,0,.14,.07,.18,.16,.07,.2,.2,.13,.35-.07,.15-.03,.4-.32,.36-.1-.02-.12,.04-.14,.13-.11,.46-.23,.91-.35,1.37,.1,.03,.2,.05,.29,.08,.12,.04,.22,.15,.12,.25-.2,.21-.22,.59-.59,.66-.08,.02-.08,.1-.1,.17-.14,.64-.28,1.27-.42,1.91-.13,.6-.26,1.2-.39,1.81h0Zm-63.18,4.5c-.5,.17-.51,.18-.91,.1-1.07-.21-1.73-.96-1.66-2.13,.02-.4-.11-.66-.46-.82-.07-.03-.13-.07-.13-.15,0-.09,.09-.09,.15-.11,.43-.13,.66-.45,.69-.89,.02-.3-.12-.56-.18-.84-.04-.17-.11-.34,.1-.49,.12-.09,.12-.22-.06-.32-.6-.31-1.23-.54-1.81-.9-.31-.19-.62-.38-.94-.58-.03,.84-.14,1.65-.07,2.47,0,.05,.04,.14-.05,.15-.12,0-.13-.12-.14-.19-.1-.8-.18-1.6-.08-2.41,.02-.17,0-.28-.15-.41-.6-.51-1.12-1.1-1.45-1.84-.14-.32-.29-.63-.5-.91-.12-.16-.29-.25-.48-.19-.23,.08-.45,.19-.58,.42-.27,.49-.2,1.02-.12,1.51,.17,1.08,.53,2.13,.95,3.13,.75,1.81,1.91,3.33,3.57,4.42,.38,.25,.65,.56,.77,.98,.12,.4,.27,.77,.43,1.15,.09,.22,.22,.41,.45,.53,.11,.05,.18,.08,.29-.02,.19-.19,.42-.31,.66-.43,.45-.21,.89-.44,1.32-.71,.2-.12,.36-.27,.39-.54h0Zm-1.81-4.95c.13,.76-.01,1.43-.67,1.9-.1,.08-.11,.11-.02,.19,.35,.3,.44,.71,.46,1.15,.02,.33,.12,.64,.43,.86,.52,.37,1.07,.27,1.63,.16,.02,0,.04-.05,.06-.07,.46-.46,.95-.91,1.52-1.24,.1-.06,.13-.11,.11-.23-.16-.95-.35-1.9-.32-2.87,0-.2-.12-.11-.21-.08-.73,.21-1.47,.31-2.23,.27-.25-.01-.5-.07-.75-.03h0ZM76.22,13.8c.02,.19-.04,.33-.07,.48-.16,.66-.36,1.31-.59,1.95-.03,.09-.06,.13,.06,.17,.75,.25,1.46,.62,2.24,.8,.21,.05,.35-.03,.37-.25,.04-.65,.22-1.28,.42-1.89,.07-.22,.02-.31-.19-.41-.71-.34-1.48-.53-2.24-.84h0Zm-.05,15.58c0,.66,.5,1.27,1.13,1.52,.5,.19,.77,.04,.84-.39,.02-.14-.03-.16-.14-.17-.24-.03-.49-.05-.71-.15-.35-.16-.58-.44-.69-.8-.05-.17,.04-.32,.19-.4,.18-.09,.2,.1,.26,.21,.21,.38,.48,.66,.94,.75,.23,.05,.27-.03,.3-.21,.09-.61,.16-1.22,.28-1.82,.04-.22,0-.32-.2-.36-.1-.03-.21-.04-.31-.05-1.16-.06-1.77,.91-1.89,1.89h0Zm-42.77,5.69c.04-.09,0-.14-.05-.19-.64-.71-1.33-1.37-2.03-2.02-.71-.64-1.45-1.24-2.12-1.93-.19-.19-.38-.39-.6-.55-.39-.28-.45-.28-.83,0-.14,.1-.26,.13-.44,.09-.33-.08-.64-.22-.98-.27-.77-.12-1.54-.13-2.3-.04-1.02,.12-1.69,.75-2.12,1.66-.12,.26-.25,.51-.37,.77,.06-.02,.09-.05,.11-.09,.28-.46,.53-.93,.87-1.35,.38-.46,.9-.72,1.5-.8,.69-.1,1.38-.1,2.07,.02,.66,.11,1.31,.29,1.95,.45,.57,.14,1.11,.27,1.57,.74,.57,.58,1.25,1.07,1.83,1.65,.64,.64,1.25,1.3,1.95,1.88h0Zm-10.76,25.08c.11-.32,.08-.62,.12-.91,.03-.2,0-.4,.01-.6,.02-.19-.12-.19-.23-.2-.16-.02-.08,.12-.09,.18-.01,.2,0,.4-.01,.6,0,.08,0,.2-.06,.22-.33,.11-.17,.39-.27,.61,.22-.06,.41-.15,.53,.1h0ZM78.27,21.55s-.02-.04-.03-.07c-.09-.56-.39-1.03-.66-1.51-.13-.23-.32-.48-.64-.5-.08,0-.19-.13-.24,.03-.04,.13,.08,.14,.15,.17,.39,.17,.63,.49,.85,.83,.21,.33,.26,.73,.37,1.1,.02,.05-.02,.14,.09,.12,.06-.02,.14-.03,.12-.16h0Zm-4.28,16.13c-.08-.02-.14,0-.18,.07-.04,.08,0,.13,.06,.18,.21,.19,.44,.34,.69,.47,.09,.04,.11,.02,.14-.09,.09-.28-.06-.41-.27-.5-.14-.06-.3-.09-.45-.13h0Zm4.81-14.66c.02-.26,.03-.43,.04-.6,0-.08-.01-.12-.08-.04-.06,.06-.11,0-.16,0-.17-.03-.35-.02-.52,.04-.04,.02-.09,.03-.09,.08s.04,.07,.09,.08c.25,.09,.51,.17,.73,.45h0Zm-3.17-3.78c-.23,.31-.18,.57,.23,.64,.05,0,.12,.03,.14-.03,.01-.04-.02-.14-.04-.14-.26-.04-.28-.25-.33-.47h0Zm-1.01,18.31c.14,.27,.32,.3,.53,.29-.16-.08-.31-.17-.53-.29Z"/><path class="cls-1" d="M59.87,3.41c.34,.54,.66,1.02,.95,1.53,.69,1.22,1.2,2.53,1.39,3.92,.09,.68,.31,1.32,.41,1.99,.13,.9,.26,1.8,.16,2.71-.03,.25-.01,.51,.05,.76,.08,.36,0,.69-.06,1.03,0,.05,0,.08-.08,.11-.42,.17-.86,.24-1.3,.3-.39,.05-.45,.01-.53-.39-.08-.36-.15-.71-.24-1.07-.02,.41,.05,.8,.15,1.19,.06,.22,0,.29-.2,.33-.06,.01-.11,.05-.2,.09,.32,.16,.62,.29,.88,.51,.07,.06,.21,.04,.32-.02,.19-.1,.65,.13,.7,.34,0,.03,0,.07-.02,.1-.03,.04-.08,.03-.12,0-.59-.41-1.15-.06-1.7,.12-1.23,.39-2.22,1.17-3.15,2.02-.58,.53-1.16,1.05-1.7,1.61-.11,.12-.24,.23-.32,.37-.14,.24-.33,.25-.58,.21,.22-.74,.8-1.21,1.3-1.74-.03-.02-.05-.03-.06-.04-.11-.05-.31-.04-.26-.21,.03-.09,.21,0,.31,.05,.12,.05,.21,.02,.3-.06,.52-.48,1.06-.93,1.63-1.36,.76-.58,1.59-.99,2.54-1.22-.3-.23-.62-.35-.97-.41-.13-.02-.32,.02-.37-.2-.02-.11-.14-.01-.2,.02-.24,.11-.48,.21-.74,.25-.2,.03-.24-.04-.22-.22,.01-.09,0-.19,0-.3-.09,.07-.05,.15-.05,.22,0,.34-.19,.5-.54,.47-.14-.02-.3-.08-.4,.13,.09-.95,.16-1.86,.12-2.78,0,.73-.13,1.45-.14,2.18,0,.23-.02,.46-.06,.68-.05,.24-.26,.36-.46,.47-.57,.3-1.18,.5-1.82,.69,.21-.79,.39-1.56,.32-2.36-.02,.73-.18,1.43-.4,2.12-.08,.26-.57,.52-.83,.45-.11-.03-.05-.08-.03-.14,.06-.2,.19-.38,.2-.61-.18,.48-.35,.95-1,.9,.17-.99,.46-1.99,.59-3.03-.45,.46-.98,.81-1.58,1-.42,.13-.62,.33-.69,.78-.09,.58-.43,1.09-.66,1.63-.05,.11-.18,.24-.05,.36,.14,.12,.3,.08,.46,0,.52-.23,.95-.6,1.44-.88,.05-.03,.09-.06,.13-.08,.08-.03,.16-.13,.24-.07,.07,.06,.04,.18,.02,.27,0,.03-.03,.06-.04,.1,0,.05-.08,.11,0,.16,.07,.04,.07-.05,.12-.06,.04,0,.08,0,.14,.01-.49,.33-.93,.74-1.48,.97-.08,.03-.16,.06-.24,.1-.41,.22-.82,.12-1.23,0-.17-.05-.23-.21-.19-.38,.02-.07,.02-.14,.04-.2,.02-.11,.16-.23,.07-.33-.07-.08-.24,.05-.31,.02-.23-.12-.48-.14-.71-.22-.08-.03-.17-.05-.24-.09-.31-.16-.55-.12-.74,.2-.14,.23-.34,.09-.51,.01-.09-.04-.19-.12-.2-.23-.05-.5-.35-.63-.8-.61-.23,0-.4-.16-.55-.32-.73-.72-.9-1.57-.6-2.54,.26-.84,.52-1.69,.63-2.57,.04-.32,0-.65,.06-.97,.01-.06,.01-.13-.08-.16-.26-.1-.34-.35-.32-.58,.03-.46-.1-.88-.18-1.32-.11-.6-.07-1.2,0-1.8,.05-.4,.12-.79,.22-1.21-.53-.02-.98,.17-1.41,.45-.71,.46-1.1,1.13-1.34,1.92-.39,1.26-.61,2.55-.69,3.87-.09,1.37-.17,2.75-.25,4.13-.1,1.65-.27,3.29-.63,4.9-.06,.26-.14,.52-.22,.78-.03,.1-.08,.21-.21,.27-.02-.49,.07-.95,.14-1.42,.09-.58,.17-1.15,.23-1.73,.08-.8,.14-1.6,.2-2.4,.03-.34,.03-.68,.05-1.03,.08-1.06,.1-2.12,.18-3.18,.11-1.55,.24-3.09,.78-4.56,.41-1.11,1.05-1.99,2.25-2.31,.33-.09,.67-.19,.93,.22,.2-.6,.39-1.15,.64-1.67,.39-.83,.95-1.51,1.66-2.07,1.27-1.01,2.72-1.68,4.29-2.07,1.26-.32,2.52-.22,3.75,.14,.69,.21,1.36,.45,1.93,.92,.12,.1,.22,.21,.29,.34,.27,.48,.8,.7,1.11,1.13,.14,.2,.28,.47,.48,.54,.19,.06,.46-.09,.69-.15,1.58-.39,3.17-.72,4.77-.99,.76-.12,1.54-.21,2.31-.29,1.52-.16,2.99,.05,4.39,.61,1.1,.45,1.87,1.24,2.02,2.49,.12,.98,.05,1.96,.06,2.94,.01,1.57-.19,3.13-.37,4.69-.15,1.28-.3,2.56-.49,3.84-.24,1.57-.55,3.12-.9,4.67-.28,1.28-.55,2.55-.98,3.79-.39,1.12-.81,2.24-1.28,3.33-.17,.38-.28,.79-.52,1.14-.04,.06-.07,.17-.17,.14-.11-.04-.05-.14-.03-.23,.31-1.39,.76-2.73,1.23-4.06,.55-1.57,.9-3.2,1.29-4.82,.27-1.13,.54-2.27,.72-3.42,.18-1.13,.35-2.25,.44-3.39,.06-.74,.18-1.47,.24-2.21,.04-.48,.07-.96,.12-1.44,.13-1.08,.1-2.17,.16-3.25,.02-.33,.07-.66,.09-.99,.09-1.3-.87-2.41-1.96-2.78-1.17-.4-2.38-.59-3.62-.51-.85,.05-1.68,.17-2.52,.29-1.02,.14-2.04,.34-3.06,.5-.64,.1-1.29,.2-1.93,.3-.2,.03-.38-.03-.61-.05h0s0,0,0,0Zm-10.04,5.78c-.15,.3-.23,.57-.44,.76-.16,.15-.36,.12-.55,.1-.11-.01-.06-.15-.05-.23,.09-.57,.1-1.15,.24-1.71,.02-.07,.04-.14-.07-.17-.16,.64-.33,1.27-.38,1.93-.01,.18-.09,.28-.29,.3-.3,.02-.59,.06-.88,.11-.32,.05-.44,.17-.46,.48-.01,.16,.12,.27,.16,.41,.19,.62,.28,1.26,.42,1.89,.22,.96,.58,1.81,1.54,2.28,.54,.26,1.08,.52,1.7,.4,1.01-.2,1.85-.67,2.43-1.53,.12-.18,.25-.24,.44-.06,0-.26,.09-.47,.05-.7-.19-1-.25-2.01-.37-3.02-.05-.39-.15-.79-.33-1.14-.1-.19-.24-.34-.2-.58-.09,.12,.07,.31-.15,.37-.38,.1-.75,.22-1.13,.31-.2,.05-.4,.06-.53-.2-.14-.29-.35-.55-.53-.83,.14,.4,.34,.77,.58,1.12-.46,.14-.89,.23-1.2-.27h0Zm-2.06,5.6c.25,.93,.5,1.86,.67,2.8-.02-.98-.24-1.92-.67-2.8ZM55.95,1.31c.09-.03,.25,.07,.3-.13,.02-.09,.04-.17-.05-.23-.15-.11-.33-.16-.51-.16-.15,0-.24,.1-.26,.24-.03,.15,.05,.21,.19,.24,.1,.02,.2,.03,.33,.04Zm.3,6.17c.36,1.22,.6,2.47,.96,3.68-.29-1.24-.43-2.51-.96-3.68Zm-9.45,7.52c-.06,.14,.04,.29,.01,.43-.11,.52,.01,1.02,.07,1.53,0,.07,.02,.13,.1,.12,.08-.02,.02-.08,.02-.13,.03-.66-.05-1.31-.21-1.95h0ZM54.44,1.31c-.06,.05-.18,.02-.25,.11-.04,.06,0,.11,.04,.13,.19,.1,.38,.2,.58,.28,.07,.03,.19,.02,.17-.12-.02-.13-.38-.41-.54-.41h0Zm.97,9.87c-.06,1-.09,2-.21,2.99,.24-.98,.27-1.98,.21-2.99Zm-1.81-9.87c-.06,.02-.13,.05-.1,.16,.07,.24,.22,.41,.44,.52,.06,.03,.12,.02,.13-.07,.02-.14-.31-.6-.47-.6Zm-6.4,7.12c.18-.61,.36-1.23,.54-1.84-.33,.57-.48,1.19-.54,1.84Zm10.62-2.95c-.27-.47-.53-.94-.8-1.41,.16,.53,.48,.98,.8,1.41Zm-5.01-3.65c0-.1-.07-.21-.22-.25-.09-.02-.12,.03-.1,.13,.03,.16,.06,.33,.24,.36,.08,.02,.08-.11,.08-.24Zm1.96-.65c.13,.2,.32,.25,.52,.28,.07,.01,.12-.06,.04-.14-.15-.16-.32-.22-.56-.14Zm-5.74,16.46c-.01-.35-.05-.69-.22-1.01-.02,0-.05,.01-.07,.02,.09,.33,.19,.66,.29,.99ZM51.27,1.61c-.3,.19-.5,.48-.66,.79l.66-.79Zm.41,.43c.08-.15,.23-.26,.22-.46-.26,.19-.27,.22-.22,.46Zm.48-.22s.03-.14-.07-.13c-.09,0-.13,.09-.13,.17,0,.06,.01,.16,.11,.15,.12,0,.08-.11,.09-.19Z"/><path class="cls-1" d="M63.06,30.15c-.07,.1-.12,.26-.3,.12-.03-.03-.13,0-.19,.03-.83,.3-1.69,.4-2.57,.35-.34-.02-.69-.08-1.01-.21-.11-.04-.27-.09-.08-.24,.02-.01,.04-.05,.04-.06-.23-.16-.03-.45-.19-.63-.05-.06-.01-.1,.04-.12,.11-.04,.22-.09,.35-.03,.22,.09,.46,.15,.69,.23,.16,.05,.25,.05,.3-.16,.11-.53,.25-1.06,.36-1.59,.19-.9,.4-1.79,.57-2.7,.11-.63,.19-1.27,.24-1.92,.09-1.24,.17-2.48,.14-3.73-.02-.79-.09-1.57-.48-2.29-.07-.12-.05-.18,.09-.18,.03,0,.06-.03,.1-.04,.29-.09,.5,0,.64,.27,.03,.06,.05,.15,.13,.14,.09,0,.08-.09,.11-.16,.1-.24,.27-.3,.5-.16,.14,.09,.26,.2,.35,.34,.14,.22,.11,.41-.04,.6-.12,.15-.36,.16-.63,.03,.23-.02,.41-.11,.44-.33,.03-.18-.04-.34-.24-.45-.02,.21-.14,.31-.34,.29-.13-.01-.16,.01-.13,.16,.09,.35,.15,.72,.13,1.09-.01,.24,.11,.29,.29,.3,.23,.02,.45,.03,.68,.04,.09,0,.17,.01,.21,.15-.35-.11-.71,.02-1.04-.1-.07-.02-.12,.01-.12,.09,0,.03,0,.07,0,.11-.02,1.08-.03,2.16-.06,3.24-.02,.75-.15,1.49-.27,2.23-.21,1.25-.51,2.48-.88,3.69-.1,.33-.2,.66-.37,.97-.07,.13-.07,.21,.11,.23,.64,.06,1.27,.02,1.9-.1,.08-.01,.1-.04,.11-.11,.01-.3,.23-.38,.47-.42,.37-.05,.76,.24,.84,.62,.05,.23-.24,.6-.54,.69-.1,.03-.21,.05-.23-.12,0-.06-.05-.11-.08-.16,.11-.04,.16,.14,.28,.08,.23-.12,.31-.37,.21-.6-.14-.3-.29-.05-.45-.02,.15,.19,.19,.38-.04,.54h0Zm-2.46,.25c.34-.03,.68-.06,1.02-.09,.14-.01,.16-.1,.15-.22-.01-.15-.11-.08-.17-.07-.59,.06-1.18,.1-1.77-.05-.12-.03-.13,.06-.12,.15,0,.09-.05,.23,.13,.22,.25-.01,.5,.08,.76,.06h0Zm1.58-.17c.22-.05,.41-.09,.59-.13,.17-.04,.09-.19,.14-.29,.01-.03,0-.11-.05-.09-.2,.05-.41,.08-.59,.17-.09,.05-.05,.21-.09,.35h0Zm-2.65,.04c-.02-.09-.02-.18-.01-.28,.02-.19-.18-.11-.26-.18-.03-.02-.11-.11-.18-.01-.12,.16-.04,.39,.16,.43,.09,.02,.19,.03,.29,.04h0Z"/><path class="cls-1" d="M31.71,49.38c.89-.04,2,0,3.1,.07,1.69,.11,3.38,.12,5.07,.16,.89,.02,1.77,.03,2.66,.03,.32,0,.43,.1,.51,.41,.05,.18-.02,.2-.17,.23-1.54,.27-3.09,.07-4.64,.09-1.77,.02-3.54-.18-5.31-.17-1.28,0-2.56-.05-3.83-.1-.27,0-.54-.06-.81-.09-.15-.02-.23-.1-.24-.23,0-.13,.11-.2,.22-.23,.24-.05,.48-.09,.72-.12,.83-.08,1.67-.05,2.72-.06h0Z"/><path class="cls-1" d="M17.11,13.22c.89,.34,1.61,.9,2.26,1.56,.32,.33,.58,.72,.8,1.13,.04,.08,.05,.18,.09,.27,.05,.14-.06,.19-.13,.25-.11,.09-.15-.03-.2-.09-.78-.97-1.75-1.73-2.72-2.56,1.33,2.57,2.98,4.92,4.09,7.61-.19-.02-.24-.11-.3-.19-.96-1.44-1.92-2.88-2.78-4.39-.4-.7-.83-1.38-1.22-2.08-.24-.44-.47-.89-.52-1.41-.02-.15-.03-.29,.18-.19,.09,.04,.11-.03,.15-.06,.2-.17,.44-.29,.67-.41,.41-.2,.81-.15,1.19,.09,.57,.36,.96,.89,1.38,1.4,.18,.22,.35,.44,.52,.66,.04,.05,.13,.09,.04,.17-.06,.06-.12,.05-.19,0-.33-.2-.61-.47-.91-.71-.45-.37-.89-.73-1.38-1.05-.33-.22-.65-.26-1.02,0h0Z"/><path class="cls-1" d="M48.95,55.1c-.18-1.39-.2-2.77-.21-4.16,0-1.56-.03-3.13-.06-4.69-.04-1.69-.08-3.38-.16-5.07-.1-2.13-.24-4.26-.2-6.39,0-.42,.05-.83,.16-1.24,.02-.06,.03-.13,.07-.17,.08-.08,.16-.23,.29-.18,.11,.04,.05,.19,.05,.28,0,1.08-.03,2.16,.01,3.24,.08,1.91,.09,3.82,.13,5.73,.03,2.08-.01,4.16,.03,6.24,.03,1.67,.02,3.35-.01,5.02,0,.46-.06,.92-.09,1.38h0Z"/><path class="cls-1" d="M31.84,9.09c-.75,.13-1.45,.32-2.13,.58-1.52,.59-2.89,1.45-4.2,2.41-1.25,.91-2.45,1.9-3.61,2.92-.37,.32-.75,.63-1.11,.96-.11,.1-.21,.13-.32,.04-.13-.1-.03-.21,.02-.3,.16-.27,.37-.51,.58-.74,1.71-1.78,3.68-3.22,5.78-4.49,1.17-.71,2.4-1.27,3.76-1.49,.49-.08,.98-.19,1.48-.09,.18,.03,.22,.11,.17,.28-.05,.16-.09,.32-.18,.46-.05,.08-.14,.14-.25,.1-.1-.05-.05-.13-.04-.21,.01-.14-.01-.28,.05-.43h0Z"/><path class="cls-1" d="M41.41,24.41c-.02,.08,.02,.17-.06,.2-.06,.02-.11-.03-.17-.06-.51-.35-.86-.85-1.21-1.34-1.12-1.59-2.11-3.26-3.16-4.89-.69-1.07-1.5-2.05-2.22-3.1-.58-.84-1.09-1.72-1.61-2.6-.03-.06-.08-.13-.08-.19,0-.12,0-.27,.1-.34,.12-.08,.21,.05,.28,.13,.49,.54,.86,1.17,1.24,1.78,.73,1.17,1.62,2.23,2.36,3.4,.85,1.35,1.66,2.72,2.51,4.07,.57,.9,1.21,1.75,1.85,2.61,.08,.1,.17,.2,.17,.32h0Z"/><path class="cls-1" d="M38.91,25.11c.61,.44,1.1,.91,1.73,1.17,.12,.05,.24,.12,.21,.26-.03,.14-.19,.15-.31,.14-.36-.03-.69-.17-.99-.37-.13-.09-.27-.19-.41-.26,.24,.37,.58,.64,.92,.9,.31,.24,.64,.46,.96,.69,.05,.04,.12,.05,.09,.13-.02,.07-.08,.08-.15,.09-.25,.02-.48-.06-.72-.09,.53,.38,1,.84,1.59,1.13-.06,.18-.22,.13-.33,.1-.83-.17-1.53-.57-2.12-1.18-.12-.13-.24-.27-.09-.46,.07-.09,0-.14-.06-.2-.37-.38-.57-.8-.45-1.34,.04-.18-.13-.25-.23-.36-.15-.17-.3-.33-.3-.59,0-.24,.07-.34,.31-.34,.52,0,1.02,.13,1.52,.24,.72,.15,1.44,.32,2.18,.35,.2,0,.52-.02,.5,.28,0,.25-.31,.21-.49,.23-.64,.06-1.27-.09-1.89-.22-.41-.08-.81-.19-1.22-.29-.06-.01-.14,0-.28,0h0Z"/><path class="cls-1" d="M20.92,16.29c0-.12,.08-.15,.13-.19,1.09-.73,2.23-1.37,3.41-1.94,1.15-.55,2.33-1.02,3.53-1.44,1.11-.38,2.24-.72,3.41-.91,.48-.08,.97-.09,1.47-.06,.1,0,.22,.02,.21,.14,0,.11-.12,.14-.22,.14-1.19,0-2.32,.34-3.44,.68-1.44,.43-2.84,.98-4.21,1.6-.97,.44-1.93,.91-2.88,1.4-.4,.2-.81,.37-1.22,.56-.05,.02-.12,.01-.19,.02h0Z"/><path class="cls-1" d="M45.01,20.18c0,.11,.1,.13,.17,.17,.47,.23,.94,.45,1.3,.85,.12,.13,.16,.12,.55,.02,.04,.1-.05,.15-.09,.23,.15,.07,.25-.1,.41-.06-.08,.17-.15,.33-.37,.34-.08,0-.17,0-.2-.09-.03-.11-.13-.09-.16-.06-.06,.05,0,.12,.04,.17,.15,.18,.43,.24,.64,.13,.26-.13,.38-.37,.31-.63,0-.02,0-.05,0-.08,.18,.08,.23,.15,.23,.31,0,.56-.65,1-1.17,.82-.31-.11-.41-.45-.36-.86,.01-.1,.03-.12-.08-.15-.23-.06-.46-.15-.68-.24-.15-.06-.23-.04-.33,.11-.5,.81-1.08,1.55-1.88,2.09-.38,.26-.78,.36-1.27,.31,.65-.47,1.2-1,1.69-1.59,.32-.38,.6-.8,.88-1.21,.06-.09,.07-.16-.02-.24-.09-.08-.18-.17-.26-.26-.18-.21-.15-.47,.09-.6,.25-.14,.49-.29,.79-.37-.03,.11-.12,.15-.19,.2-.14,.1-.26,.23-.33,.39-.05,.1-.09,.27-.03,.29,.09,.04,.23,.12,.34,0h0s0,0,0,0Z"/><path class="cls-1" d="M55.08,29.36c-.02,.06-.05,.07-.09,.07-.65,0-1.3,.03-1.95-.03-.56-.05-1.11-.09-1.66-.17-1.15-.17-2.28-.4-3.4-.72-.82-.23-1.58-.55-2.3-1.01-.55-.35-.92-.85-1.2-1.39-.29-.55-.72-.86-1.28-1.06-.38-.14-.74-.34-1.06-.6-.04-.03-.12-.07-.08-.14,.03-.06,.1-.05,.17-.02,.67,.28,1.35,.55,2.02,.83,.25,.1,.42,.29,.54,.54,.14,.3,.32,.58,.49,.86,.23,.37,.54,.66,.91,.89,.96,.62,2.02,.96,3.11,1.23,1.6,.39,3.24,.51,4.88,.59,.3,.01,.62-.01,.91,.13Z"/><path class="cls-1" d="M70.59,17.63c.22,.38,.18,.76,.11,1.13-.42,2.16-1.17,4.21-1.95,6.26-.39,1.02-.74,2.06-.91,3.15-.02,.12,0,.24-.02,.37-.05-.46,.05-.92,.1-1.38,.21-1.87,.98-3.58,1.54-5.35,.34-1.07,.73-2.11,.94-3.22,.06-.32,.13-.64,.2-.97h0Z"/><path class="cls-1" d="M51.07,27.42c-.3,.09-.59,.19-.89,.26-.88,.21-1.77,.27-2.67,.07-.05-.01-.1-.02-.15-.05-.11-.06-.23-.14-.2-.27,.03-.1,.16-.1,.27-.1,.47,0,.93,.01,1.4,0,1.21-.04,2.39-.26,3.52-.69,.1-.04,.2-.12,.3,.02,.1,.14,0,.22-.08,.29-.34,.36-.77,.59-1.19,.84-.24,.14-.49,.26-.74,.39-.06,.03-.13,.13-.2,.03-.04-.07-.04-.16,.03-.24,.18-.2,.4-.33,.6-.55h0Z"/><path class="cls-1" d="M41.76,45.86c-.02-.65,0-1.3,.06-1.94,.04-.46,.1-.91,.17-1.37,.01-.09,0-.25,.16-.27,.16-.02,.38,.2,.41,.38,.06,.36,.02,.72-.01,1.07-.09,.87-.2,1.73-.3,2.6-.04,.36-.07,.71-.11,1.07,0,.1-.04,.17-.15,.18-.11,0-.14-.07-.16-.17-.11-.52-.02-1.03-.05-1.55h0Z"/><path class="cls-1" d="M25.52,12.73c.22-.26,.53-.39,.8-.53,1.66-.85,3.37-1.58,5.18-2.05,.33-.09,.67-.14,1-.03,.12,.04,.22,.1,.29,.21,.05,.07,.07,.16,.02,.22-.05,.08-.15,.06-.21,.02-.36-.24-.72-.13-1.09-.04-1.14,.28-2.23,.72-3.31,1.18-.79,.34-1.57,.7-2.37,1-.09,.03-.19,.1-.31,.03h0Z"/><path class="cls-1" d="M71.61,10.67c-.02-.93,0-1.8-.08-2.66-.05-.65-.06-1.31-.11-1.97-.05-.7-.12-1.4-.19-2.09-.02-.19-.05-.37,.13-.51,.11-.09,.17-.09,.23,.05,.15,.34,.2,.7,.25,1.06,.16,1.19,.06,2.38-.04,3.56-.07,.76-.1,1.52-.15,2.28,0,.07-.02,.13-.04,.27Z"/><path class="cls-1" d="M56.44,27.34c.58-.21,1.1-.45,1.7-.38-.04,.18-.2,.23-.32,.3-.6,.3-1.22,.59-1.82,.89-.1,.05-.21,.09-.28,.19,.07,.13,.25,.04,.34,.16-.26,.12-.51,.07-.74-.04-.24-.11-.27-.33-.07-.5,.25-.22,.57-.33,.87-.48,.07-.04,.16-.04,.17-.17,.02-.57,.21-1.11,.29-1.67,.04-.27,.09-.53,.13-.8,.01-.06,.03-.12,.05-.17,.02-.06,.07-.11,.14-.1,.06,.01,.06,.07,.08,.13,.13,.42,0,.83-.08,1.23-.1,.46-.26,.91-.44,1.41h0Z"/><path class="cls-1" d="M45.02,20.19c.32-.43,.61-.87,1.06-1.17,.58-.39,1.24-.45,1.9-.38,.26,.03,.52,0,.78,.08,.13,.04,.27,.07,.39,.14-.09,.12-.21,.07-.32,.08-.61,.02-1.22,.03-1.81,.22-.53,.17-.87,.57-1.16,1.01-.09,.13,.06,.13,.1,.14,.24,.09,.48,.2,.71,.31,.28,.14,.51,.32,.69,.59-.71-.53-1.58-.68-2.37-1.01h0s0,0,0,0Z"/><path class="cls-1" d="M23.57,22.42c-.6-.57-3.24-5.59-3.22-6.1,.14-.01,.17,.1,.22,.18,.81,1.24,1.51,2.55,2.14,3.89,.24,.52,.48,1.04,.71,1.56,.06,.14,.14,.28,.15,.47h0Z"/><path class="cls-1" d="M23.53,17.66c.14,.32,.24,.56,.35,.79,.06,.12,.05,.25-.05,.31-.12,.07-.2-.06-.24-.15-.24-.45-.49-.9-.66-1.39-.03-.1-.1-.23,.08-.31,.19-.08,.18,.09,.24,.16,.25,.3,.58,.48,.9,.69-.17-.33-.37-.63-.51-.96-.04-.1-.13-.23,.02-.3,.14-.07,.18,.08,.23,.16,.3,.45,.61,.89,.78,1.4,.02,.08,.06,.16-.02,.21-.07,.05-.13-.03-.19-.05-.31-.14-.59-.32-.93-.56h0Z"/><path class="cls-1" d="M31.91,16.99c.14,.49,.4,.92,.56,1.42-.1-.02-.16-.06-.22-.14-.36-.47-.62-.99-.8-1.55-.03-.08-.06-.19,0-.25,.08-.07,.18,0,.27,.04,.38,.18,.67,.49,1.02,.79-.1-.37-.31-.66-.44-.98-.05-.12-.13-.23-.14-.36,0-.08-.08-.19,.04-.23,.1-.03,.12,.09,.15,.15,.3,.54,.55,1.1,.75,1.68,.03,.09,.19,.19,.03,.32-.35-.37-.82-.58-1.22-.89h0Z"/><path class="cls-1" d="M56.71,23.97c.04-.2,.09-.4,.13-.6,.03-.16,.05-.32-.02-.47-.11-.23-.04-.43,.06-.62,.3-.62,.7-1.18,1.19-1.67,.12-.12,.33-.29,.43-.2,.12,.11-.08,.28-.16,.41-.34,.55-.72,1.06-1.02,1.64-.21,.41-.29,.87-.46,1.3-.03,.08-.06,.16-.08,.24-.02,0-.04,0-.05-.01h0Z"/><path class="cls-1" d="M30.75,18.02c-.22-.58-.5-1.05-.63-1.57,.41,.66,.66,1.4,1.07,2.14-.46-.23-.87-.42-1.26-.77,.07,.18,.12,.31,.17,.43,.06,.13,.13,.25,.18,.37,.05,.13,.21,.31,.08,.38-.15,.08-.23-.17-.29-.29-.19-.34-.34-.71-.49-1.07-.06-.13-.09-.27-.2-.36-.09-.08-.04-.14,0-.2,.06-.08,.11-.03,.18,.01,.39,.28,.78,.57,1.2,.93h0Z"/><path class="cls-1" d="M28.84,16.92c.52,.71,.95,1.45,1.13,2.33-.44-.43-.94-.78-1.47-1.22,.19,.5,.43,.9,.53,1.35-.44-.52-.58-1.2-.91-1.8,.54,.14,.9,.56,1.37,.88-.17-.55-.55-.98-.65-1.54h0Z"/><path class="cls-1" d="M54.82,22.31c-.68,0-1.07-.42-1.08-.92,0-.36,.45-.82,.81-.82,.05,0,.11-.03,.13,.04,.03,.08-.04,.1-.09,.14-.4,.3-.44,.55-.21,1.02,.09,.18,.49,.37,.67,.31,.11-.04,.13-.17,.17-.27,.06-.16,.07-.36,.27-.45,.04-.02,.08-.08,.14-.03,.05,.04,.07,.1,.07,.16-.03,.47-.4,.81-.87,.81h0Z"/><path class="cls-1" d="M25.56,20.55c0,.44-.11,.57-.41,.54-.11-.01-.18-.07-.23-.15-.32-.5-.62-1.01-.84-1.56-.06-.16-.02-.23,.12-.28,.22-.07,.56-.19,.65,.02,.16,.36,.51,.57,.62,.95,.05,.17,.11,.33,.1,.47h0Zm-.35,.23c.2,0,.2,0,.15-.18-.06-.25-.18-.47-.34-.66-.05-.06-.09-.17-.2-.07-.09,.08-.17,.14-.08,.28,.1,.16,.19,.33,.27,.51,.05,.1,.11,.15,.21,.13Zm-.63-.9c.12-.18,.16-.36,.23-.53,.04-.1,0-.18-.12-.16-.16,.02-.34-.07-.48,.07,0,0,.03,.06,.05,.09,.1,.17,.21,.34,.33,.52h0Z"/><path class="cls-1" d="M45.77,22.22c-.02,.68-.24,1.24-.81,1.63-.27,.18-.52,.39-.72,.65-.04,.05-.08,.12-.15,.08-.07-.04-.02-.13,0-.18,.16-.27,.33-.55,.57-.74,.44-.35,.63-.8,.58-1.35-.02-.16,.04-.3,.15-.43,.06-.07,.1-.14,.21-.12,.1,.02,.1,.1,.13,.17,.04,.1,.03,.21,.03,.29h0Z"/><path class="cls-1" d="M35.63,20.11c-.25,.24-.53,.4-.8,.56-.77,.44-1.56,.82-2.42,1.04-.13,.03-.34,.09-.38-.03-.06-.17,.16-.2,.27-.25,1.07-.45,2.13-.93,3.23-1.32,.02,0,.05,0,.1,0Z"/><path class="cls-1" d="M69.23,53.04c.32,.55,.18,1.11,.1,1.66-.03,.24-.08,.48-.13,.71-.02,.11-.08,.22-.19,.22-.1,0-.16-.09-.2-.21-.06-.19-.07-.39-.06-.57,.04-.64,0-1.28,.14-1.9,.02-.1,.06-.18,.19-.18-.18,.69,0,1.4-.13,2.09,.16-.38,.19-.78,.25-1.18,.02-.1-.05-.21-.08-.32-.03-.13-.04-.24,.11-.32h0Z"/><path class="cls-1" d="M26.42,17.01c-.05-.25,.01-.51-.06-.76-.02-.06-.05-.17,.04-.21,.09-.04,.14,.04,.2,.1,.23,.24,.45,.49,.68,.73,.02-.02,.04-.03,.06-.05-.13-.48-.26-.96-.39-1.45,.23,.05,.25,.24,.31,.39,.12,.34,.22,.69,.32,1.04,.02,.07,.1,.16,.02,.21-.08,.06-.18,.03-.27-.03-.16-.11-.32-.21-.45-.36-.08-.09-.17-.18-.29-.31-.06,.36,.04,.64,.13,.92,.02,.07,.13,.16,.02,.23-.11,.08-.17-.05-.23-.11-.38-.38-.68-.82-.96-1.28l.06-.05c.27,.33,.55,.65,.82,.98h0Z"/><path class="cls-1" d="M26.94,18.83c.2-.38,.31-.38,.51-.05,.11,.18,.22,.36,.31,.54,.09,.18,.16,.38-.03,.55-.17,.15-.52,.19-.68,.04-.39-.35-.63-.79-.67-1.32-.02-.2,.11-.34,.26-.42,.09-.05,.23-.07,.34,.05-.33-.03-.44,.12-.36,.45,.1,.42,.33,.76,.62,1.07,.08,.09,.18,.14,.28,.08,.12-.07,.06-.18,.02-.28-.06-.16-.12-.33-.17-.49-.06-.2-.13-.4-.42-.2h0Z"/><path class="cls-1" d="M25.72,18.44c-.06,.02-.12,.04-.17,.07-.1,.06-.29,.05-.27,.21,.03,.21,.26,.32,.46,.27,.07-.02,.15-.01,.23-.02-.02,.19-.32,.16-.27,.35,.03,.15,.16,.27,.23,.41,.09,.18,.22,.35,.22,.58,0,.12,.09,.17,.22,.1,.09-.05,.19-.07,.29-.1-.01,.16-.14,.18-.22,.24-.14,.11-.24,.18-.4-.07-.22-.33-.49-.62-.69-.96-.11-.19-.2-.38-.31-.57-.09-.17-.04-.28,.11-.36,.17-.09,.35-.15,.55-.14h0Z"/><path class="cls-1" d="M49.32,19.14c.05,.12,.04,.19,.02,.26-.09,.37,.1,.54,.47,.56,.64,.04,1.22-.13,1.78-.39,.54-.24,1.01-.61,1.49-.95,.15-.11,.3-.23,.54-.31-.23,.32-.48,.52-.75,.69-.76,.48-1.53,.94-2.43,1.12-.3,.06-.59,.04-.89,.02-.17,0-.24-.18-.3-.33-.07-.21-.1-.43,.07-.67h0Z"/><path class="cls-1" d="M28.63,19.46c0,.08,0,.13-.06,.16-.07,.03-.14,.01-.19-.05-.08-.1-.16-.21-.22-.32-.21-.4-.4-.81-.6-1.21-.03-.06-.04-.13-.05-.2,0-.07,.02-.13,.08-.15,.07-.03,.14-.01,.19,.05,.07,.09,.15,.17,.2,.27,.21,.43,.45,.86,.61,1.31,.02,.06,.03,.12,.04,.15h0Z"/><path class="cls-1" d="M50.18,31.81c0,.13-.06,.21-.16,.25-.21,.08-.43,.13-.62,.26-.05,.03-.15,.05-.17,0-.11-.35-.41-.2-.62-.22-.4-.05-.82-.04-1.25-.15,.57-.17,1.1-.02,1.62,0,.16,0,.3,.04,.46-.07,.22-.15,.49-.05,.74-.07h0Z"/><path class="cls-1" d="M31.78,18.6c-.47-.67-.89-1.37-1.13-2.16,.23-.03,.32,.07,.39,.24,.22,.53,.46,1.05,.7,1.57,.05,.11,.06,.23,.03,.35h0Z"/><path class="cls-1" d="M35.29,21.48c-.56,.32-1.1,.67-1.69,.91-.06,.02-.12,.04-.17,0-.06-.06,.02-.11,.02-.16,0-.12,.05-.2,.15-.25,.53-.29,1.09-.44,1.69-.49Z"/><path class="cls-1" d="M34.43,23.15c-.02-.1,0-.16,.16-.19,.27-.05,.53-.14,.8-.21,.06-.02,.15-.05,.18,.04,.03,.08,.09,.19-.02,.26-.23,.15-.45,.33-.7,.45-.22,.11-.41-.05-.42-.35h0Z"/><path class="cls-1" d="M25.73,17.62c-.1,.3-.34,.36-.55,.45-.11,.05-.18-.07-.22-.14-.24-.42-.4-.87-.58-1.31-.07-.16,.09-.26,.19-.36,.1-.1,.21-.21,.37-.22,.01,0,.04,.04,.03,.05-.05,.13-.19,.19-.29,.25-.21,.11-.18,.19-.1,.41,.15,.4,.39,.4,.7,.31,.02,.1-.04,.08-.07,.09-.36,.17-.39,.32-.13,.62,.06,.07,.13,.05,.19,.03,.14-.05,.28-.12,.46-.19h0Z"/><path class="cls-1" d="M55.57,28.9c.08,0,.13,.03,.18,.07,.16,.13,.32,.27,.48,.4,.07,.06,.11,.11,.04,.22-.06,.09-.12,.12-.21,.1-.24-.06-.46-.16-.68-.26-.12-.06-.13-.18-.1-.27,.05-.13,.16-.21,.29-.26h0Z"/><path class="cls-1" d="M34.38,17.65c-.21,.09-.35,.1-.51-.02-.54-.44-.83-.99-.83-1.69,0-.21,.21-.39,.41-.33,.07,.02,.13,.06,.13,.14,0,.1-.08,.07-.13,.08-.17,.01-.23,.11-.24,.28-.01,.64,.5,1.35,1.17,1.55h0Z"/><path class="cls-1" d="M67.21,55.55c.15-.08,.18-.21,.2-.37,.08-.6,.04-1.21,.05-1.81,0-.12,0-.24,.1-.35,.1,.09,.13,.21,.11,.33-.1,.55-.03,1.1-.05,1.65,0,.15-.02,.3-.08,.43-.06,.13-.16,.25-.32,.11h0Z"/><path class="cls-1" d="M56.84,19.83c.17-.04,.26,.08,.33,.22,.08,.18,.15,.37,.21,.56,.02,.05,.05,.15-.05,.17-.08,.02-.17,.07-.24-.03-.15-.22-.32-.43-.46-.66-.11-.19-.04-.28,.2-.26h0Z"/><path class="cls-1" d="M20.83,13.64s-.02,.06-.04,.06c-.05,.01-.08-.02-.11-.05-.23-.21-.45-.41-.68-.62-.15-.14-.31-.28-.46-.43-.07-.07-.14-.16-.08-.25,.08-.12,.15,0,.22,.04,.46,.32,.8,.76,1.13,1.19,.02,.02,.02,.05,.03,.06h0Z"/><path class="cls-1" d="M65.78,52.28c-.25,0-.44-.16-.42-.37,.01-.17,.02-.36,.27-.36,.21,0,.42,.22,.42,.45,0,.18-.13,.25-.26,.28h0Z"/><path class="cls-1" d="M63.3,19.12c.18-.42,.05-.87,.14-1.31,.09-.42,.16-.85,.24-1.28,.2,.26-.03,1.94-.38,2.59h0Z"/><path class="cls-1" d="M67.22,55.54c-.13-.03-.12-.17-.12-.24,0-.8,.03-1.61,.16-2.4,0-.02,.03-.04,.06-.07,.19,.28,.02,.56,0,.82-.02,.64-.14,1.27-.12,1.9h0s0,0,0,0Z"/><path class="cls-1" d="M44.92,31.24c-.51,.33-1.07,.58-1.66,.76-.09,.03-.18,0-.19-.08-.01-.08,.09-.12,.16-.14,.46-.15,.91-.29,1.37-.44,.11-.03,.21-.07,.32-.1Z"/><path class="cls-1" d="M58.43,30.16c-.36,.06-.42-.2-.5-.39-.08-.21,0-.41,.21-.51,.24-.12,.38,.06,.54,.24-.17,.07-.4,.02-.48,.21-.08,.2,.08,.31,.24,.45h0Z"/><path class="cls-1" d="M34.27,17.42c0-.27-.02-.53-.06-.8-.04-.3-.09-.36-.39-.33-.07,0-.19,.05-.21-.04-.01-.09,.07-.16,.19-.18,.15-.02,.29-.03,.37,.12,.2,.36,.29,.75,.19,1.17,0,.04-.03,.06-.09,.06h0Z"/><path class="cls-1" d="M63.57,16.34c-.05,.16-.14,.18-.22,.15-.29-.1-.6-.1-.9-.1-.08,0-.18,0-.19-.1,0-.1,.12-.1,.18-.1,.24-.02,.49-.05,.72,.05,.13,.06,.25,.11,.41,.09h0Z"/><path class="cls-1" d="M65.12,56.48c.21-.11,.46-.05,.57,.13,.05,.09,.06,.19,0,.27-.1,.14-.25,.11-.39,.1-.14-.01-.26-.07-.31-.2-.03-.08-.03-.19,.09-.21,.17-.03,.05,.09,.07,.14,.03,.08,.07,.14,.16,.16,.07,.01,.12-.04,.14-.1,.04-.08,.04-.17-.04-.24-.08-.07-.17-.11-.28-.05h0Z"/><path class="cls-1" d="M30.69,20.2c-.07,0-.13,.01-.17-.08-.04-.11,.04-.15,.11-.17,.2-.08,.41-.14,.62-.2,.04-.01,.09,0,.12,.03,.03,.05,0,.08-.03,.11-.18,.17-.39,.28-.64,.32h0Z"/><path class="cls-1" d="M54.58,21.15s.05,.02,.05,.03c0,.23,.16,.26,.33,.28,.07,0,.09,.04,.08,.11-.01,.06-.05,.12-.12,.12-.15,.01-.25-.08-.36-.17-.12-.09-.07-.2-.08-.31,0-.05,.03-.08,.1-.07h0Z"/><path class="cls-1" d="M58.66,18.24c.24-.32,.58-.46,.95-.56-.32,.19-.63,.38-.95,.56Z"/><path class="cls-1" d="M41.66,24.56c-.1-.03-.11-.1-.13-.15-.03-.08-.11-.16-.06-.27,0-.01,.05-.02,.06-.01,.11,.05,.11,.16,.13,.26,0,.05,0,.1,0,.17h0Z"/><path class="cls-1" d="M63.15,16.99c0-.16,.02-.27,.14-.32,.05-.02,.1,.03,.11,.08,.02,.17-.12,.17-.25,.24Z"/><path class="cls-1" d="M25.75,59.86c-.06-.08-.12-.17-.19-.25-.08-.08-.2-.14-.3-.07-.09,.06-.14,.17-.08,.3,.11,.27,.27,.51,.34,.86-.16-.29-.29-.53-.42-.77-.09-.17-.14-.35,0-.5,.1-.11,.24-.09,.36-.02,.18,.1,.33,.22,.28,.46h0Z"/><path class="cls-1" d="M48.62,11.52c.03,.17-.05,.3-.1,.44-.09,.27-.02,.38,.26,.38,.1,0,.19,0,.31,0-.08,.3-.32,.35-.53,.41-.15,.04-.34,.05-.43-.11-.12-.2-.13-.43,.02-.62,.14-.18,.19-.44,.47-.5h0Z"/><path class="cls-1" d="M50.95,11.31c-.11,0-.36-.38-.36-.57,0-.15,.13-.2,.23-.2,.29,0,.5,.16,.5,.36,0,.24-.15,.4-.36,.41h0Z"/><path class="cls-1" d="M49.51,14.71c-.13,0-.24,0-.34,0-.12,0-.2-.1-.21-.19-.01-.1,.11-.15,.2-.17,.11-.01,.23-.02,.34,0,.24,.04,.48,.09,.71,.13,.06,.01,.13,.04,.11,.12-.01,.07-.08,.05-.13,.05-.24-.01-.47,.09-.68,.05Z"/><path class="cls-1" d="M47.95,11.09c.05,.14,0,.27-.06,.41-.05,.12-.14,.12-.21,.06-.13-.13-.23-.28-.23-.48,0-.18,.17-.24,.26-.36,.04-.06,.23-.07,.23,.12v.25h0Z"/></g></g></svg>